<?xml version="1.0" encoding="UTF-8"?>
<!DOCTYPE svg PUBLIC "-//W3C//DTD SVG 1.1//EN" "http://www.w3.org/Graphics/SVG/1.1/DTD/svg11.dtd">
<svg version="1.1" xmlns="http://www.w3.org/2000/svg" xmlns:xlink="http://www.w3.org/1999/xlink" x="0" y="0" width="850" height="850" viewBox="0, 0, 850, 850">
  <g id="Ebene_1">
    <g>
      <path d="M238.368,418.374 C261.631,418.374 283.913,422.58 304.493,430.272 L305.395,430.629 C287.153,465.9 278.532,504.905 278.031,544.468 C278.261,622.473 312.793,690.894 372.546,740.207 L372.342,740.416 C338.128,774.84 290.737,796.152 238.368,796.152 C134.047,796.152 49.479,711.583 49.479,607.263 C49.479,502.943 134.047,418.374 238.368,418.374 z" fill="#FFFFFF"/>
      <path d="M527.531,794.468 C389.46,794.468 277.531,682.539 277.531,544.468 C277.531,406.397 389.46,294.468 527.531,294.468 C665.603,294.468 777.531,406.397 777.531,544.468 C777.531,682.539 665.603,794.468 527.531,794.468 z" fill="#FFFFFF"/>
      <g>
        <path d="M238.923,407.818 C347.451,408.098 437.508,495.908 438.885,604.815 L427.774,604.815 C426.801,501.193 341.136,420.223 238.923,418.929 C134.601,418.93 50.034,503.497 50.034,607.818 C50.034,712.142 134.6,796.707 238.923,796.707 C320.845,796.491 389.76,745.232 417.637,669.086 L417.637,697.638 C384.653,765.726 313.542,806.874 238.923,807.818 C128.464,807.818 38.923,718.278 38.923,607.818 C38.923,497.36 128.465,407.818 238.923,407.818 z" fill="#E5287A"/>
        <path d="M238.931,404.818 C349.413,405.103 440.491,494.544 441.885,604.776 L441.923,607.814 L424.802,607.814 L424.774,604.843 C423.828,504.037 340.689,423.218 238.923,421.929 C136.258,421.93 53.034,505.154 53.034,607.818 C53.034,710.485 136.257,793.707 238.915,793.707 C318.537,793.497 387.001,744.04 414.82,668.055 L420.637,669.086 L420.637,698.326 L420.337,698.946 C387.506,766.717 316.316,809.84 238.923,810.818 C126.807,810.818 35.923,719.935 35.923,607.818 C35.923,495.703 126.808,404.818 238.923,404.818 L238.931,404.818 z M238.923,407.818 L238.923,407.818 C128.465,407.818 38.923,497.36 38.923,607.818 C38.923,718.278 128.464,807.818 238.923,807.818 C313.542,806.874 384.653,765.726 417.637,697.638 L417.637,669.086 C389.76,745.232 320.845,796.491 238.923,796.707 C134.6,796.707 50.034,712.142 50.034,607.818 C50.034,503.497 134.601,418.93 238.923,418.929 C341.136,420.223 426.801,501.193 427.774,604.814 L438.885,604.814 C437.508,495.908 347.451,408.098 238.923,407.818 z" fill="#FFFFFF"/>
      </g>
      <g>
        <path d="M528.033,322.745 C650.763,322.745 750.254,422.236 750.254,544.967 C750.254,667.698 650.762,767.19 528.033,767.19 C405.301,767.19 305.809,667.699 305.809,544.967 C305.809,422.235 405.3,322.745 528.033,322.745 z M528.033,327.19 C407.755,327.19 310.254,424.69 310.254,544.967 C310.254,665.244 407.756,762.745 528.033,762.745 C648.307,762.745 745.809,665.243 745.809,544.967 C745.809,424.691 648.308,327.19 528.033,327.19 z" fill="#E5287A"/>
        <path d="M528.032,320.745 C651.868,320.745 752.254,421.131 752.254,544.967 C752.254,668.803 651.867,769.19 528.032,769.19 C404.196,769.19 303.809,668.803 303.809,544.967 C303.809,421.131 404.196,320.745 528.032,320.745 z M528.032,322.745 C405.3,322.745 305.809,422.235 305.809,544.967 C305.809,667.699 405.301,767.19 528.032,767.19 C650.762,767.19 750.254,667.698 750.254,544.967 C750.254,422.236 650.763,322.745 528.032,322.745 z M528.032,327.19 L528.032,327.19 C648.308,327.19 745.809,424.691 745.809,544.967 C745.809,665.243 648.307,762.745 528.032,762.745 C407.756,762.745 310.254,665.244 310.254,544.967 C310.254,424.69 407.755,327.19 528.032,327.19 z M528.032,329.19 C408.86,329.19 312.254,425.795 312.254,544.967 C312.254,664.139 408.86,760.745 528.032,760.745 C647.203,760.745 743.809,664.139 743.809,544.967 C743.809,425.795 647.204,329.19 528.032,329.19 L528.032,329.19 z" fill="#FFFFFF"/>
      </g>
      <g>
        <path d="M527.532,281.117 C672.978,281.117 790.882,399.023 790.882,544.47 C790.882,689.915 672.978,807.818 527.532,807.818 C382.086,807.818 264.181,689.915 264.181,544.47 C264.181,399.022 382.086,281.117 527.532,281.117 z M527.532,307.818 C396.832,307.818 290.882,413.769 290.882,544.47 C290.882,675.169 396.832,781.117 527.532,781.117 C658.231,781.117 764.181,675.169 764.181,544.47 C764.181,413.769 658.231,307.818 527.532,307.818 z" fill="#E5287A"/>
        <path d="M527.532,277.117 C675.187,277.117 794.882,396.814 794.882,544.47 C794.882,692.124 675.187,811.818 527.532,811.818 C379.876,811.818 260.181,692.125 260.181,544.47 C260.181,396.813 379.876,277.117 527.532,277.117 z M527.532,281.117 L527.532,281.117 C382.086,281.117 264.181,399.022 264.181,544.47 C264.181,689.915 382.086,807.818 527.532,807.818 C672.978,807.818 790.882,689.915 790.882,544.47 C790.882,399.023 672.978,281.117 527.532,281.117 z M527.532,307.818 C658.231,307.818 764.181,413.769 764.181,544.47 C764.181,675.169 658.231,781.117 527.532,781.117 C396.832,781.117 290.882,675.169 290.882,544.47 C290.882,413.769 396.832,307.818 527.532,307.818 z M527.532,311.818 C399.041,311.818 294.882,415.978 294.882,544.47 C294.882,672.96 399.041,777.117 527.532,777.117 C656.022,777.117 760.181,672.959 760.181,544.47 C760.181,415.978 656.022,311.818 527.532,311.818 z" fill="#FFFFFF"/>
      </g>
      <g>
        <path d="M379.037,667.14 L379.037,664.463 L362.398,659.879 L509.991,566.208 L509.991,588.286 L383.016,667.14 L379.037,667.14" fill="#323232"/>
        <path d="M670.423,654.568 L511.32,588.729 L511.32,566.651 L691.665,643.943 L672.757,652.467 L672.757,654.568 L670.423,654.568" fill="#000000"/>
        <path d="M393.606,638.86 C393.606,638.86 435.659,602.77 442.129,578.313 C432.48,562.292 427.017,543.163 427.347,522.693 C428.24,467.369 471.115,423.201 523.11,424.04 C575.106,424.879 616.533,470.408 615.64,525.732 C615.334,544.653 610.119,562.269 601.307,577.226 C607.908,595.744 651.137,625.381 651.137,625.381 L509.991,564.986 L393.606,638.86" fill="#000000"/>
        <path d="M478.491,554.892 C457.997,479.952 486.882,432.003 486.882,432.003 C516.675,419.307 542.821,427.478 542.821,427.478 C542.821,427.478 555.266,466.799 547.007,550.304 L478.491,554.892" fill="#323232"/>
        <path d="M509.991,563.59 L496.103,572.24 C482.31,567.33 478.803,555.641 478.803,555.641 L547.067,551.199 C547.067,551.199 540.755,566.161 527.196,571.188 L509.991,563.59" fill="#323232"/>
        <path d="M572.865,579.912 C580.566,584.336 583.024,583.189 583.024,583.189 L580.566,569.262 L570.408,565.166 L572.865,579.912" fill="#FFFFFF"/>
        <path d="M450.108,593.318 C450.108,593.318 452.035,593.639 455.569,590.106 L457.496,581.111 L451.714,584.002 L450.108,593.318" fill="#FFFFFF"/>
        <path d="M542.271,351.613 L502.659,352.459 L474.727,372.773 L478.803,399.182 L480.883,400.734 L479.994,433.142 C525.75,408.553 567.484,435.232 567.484,435.232 L567.833,400.734 L573.758,396.812 L573.758,369.726 L542.271,351.613" fill="#000000"/>
        <path d="M531.019,364.685 L512.33,364.826 L512.33,387.308 L531.019,387.308 L531.019,364.685" fill="#FFFFFF"/>
        <path d="M482.214,366.263 C485.169,362.158 483.154,348.975 483.154,348.975 C481.63,344.437 480.803,339.574 480.803,334.517 C480.803,309.607 500.862,289.413 525.605,289.413 C550.349,289.413 570.408,309.607 570.408,334.517 C570.408,339.499 569.605,344.293 568.124,348.774 C568.124,348.774 567.422,362.651 569.72,366.263 L542.139,350.502 L502.572,351.323 L482.214,366.263" fill="#000000"/>
        <path d="M495.807,299.052 L523.722,98.11 L528.058,98.11 L554.38,298.486 C554.38,298.486 528.354,274.767 495.735,299.065" fill="#000000"/>
        <path d="M526.333,99.734 C523.187,99.734 520.636,96.419 520.636,92.331 C520.636,88.242 523.187,84.928 526.333,84.928 C529.48,84.928 532.031,88.242 532.031,92.331 C532.031,96.419 529.48,99.734 526.333,99.734 z" fill="#000000"/>
        <path d="M526.45,49.732 L526.45,85.428 L525.45,85.428 L525.45,49.732 L526.45,49.732 z" fill="#000000"/>
        <path d="M513.067,52.135 L540.064,77.281 L539.349,78.033 L512.353,52.887 L513.067,52.135 z" fill="#000000"/>
        <path d="M511.437,53.648 C510.385,53.648 509.531,52.66 509.531,51.44 C509.531,50.221 510.385,49.232 511.437,49.232 C512.489,49.232 513.343,50.221 513.343,51.44 C513.343,52.66 512.489,53.648 511.437,53.648 z" fill="#000000"/>
        <path d="M525.95,49.732 C524.619,49.732 523.54,48.042 523.54,45.957 C523.54,43.872 524.619,42.182 525.95,42.182 C527.281,42.182 528.36,43.872 528.36,45.957 C528.36,48.042 527.281,49.732 525.95,49.732 z" fill="#000000"/>
        <path d="M540.997,80.574 C540.016,80.574 539.221,79.569 539.221,78.33 C539.221,77.091 540.016,76.086 540.997,76.086 C541.977,76.086 542.772,77.091 542.772,78.33 C542.772,79.569 541.977,80.574 540.997,80.574 z" fill="#000000"/>
        <path d="M382.53,668.886 L384.894,673.318" fill-opacity="0" stroke="#000000" stroke-width="1"/>
        <path d="M384.394,672.818 L382.781,728.377 C382.781,728.377 378.845,723.064 382.781,728.377 C448.488,775.937 509.991,776.759 509.991,776.759 L509.991,589.679 L382.03,668.386" fill="#323232"/>
        <path d="M669.662,655.215 L511.34,589.679 L511.34,776.498 C511.34,776.498 423.463,770.536 511.34,776.498 C602.58,783.85 671.017,727.773 671.017,727.773 L671.017,727.773 L669.662,655.215" fill="#000000"/>
        <path d="M575.76,667.14 C576.349,651.83 554.38,631.289 545.814,656.23 L545.462,693.446 L575.76,703.427 L575.76,667.14" fill="#FFFFFF"/>
        <path d="M430.745,684.732 L430.745,719.963 L406.678,732.368 L407.423,697.881 C407.919,682.747 425.782,657.192 430.745,684.732" fill="#FFFFFF"/>
        <path d="M480.803,694.656 L455.555,707.309 L455.555,672.523 C455.059,644.539 479.125,633.622 482.35,651.238 L480.803,694.656" fill="#FFFFFF"/>
        <path d="M637.776,723.081 L637.776,688.298 C637.606,678.966 622.845,654.873 609.441,674.724 L609.441,713.749 L637.776,723.081" fill="#FFFFFF"/>
      </g>
      <path d="M310.254,544.967 C310.254,665.244 407.756,762.745 528.033,762.745 C648.307,762.745 745.809,665.243 745.809,544.967 L750.254,544.967 C750.254,667.698 650.762,767.19 528.033,767.19 C405.301,767.19 305.809,667.699 305.809,544.967 L310.254,544.967 z" fill="#E5287A"/>
      <g>
        <path d="M606.981,409.671 L685.191,331.107 L758.846,331.107 L706.709,383.484 L811.077,383.484 L811.077,435.852 L706.709,435.86 L758.846,488.237 L685.191,488.237 L606.981,409.671" fill="#FFC000"/>
        <path d="M766.065,328.107 L760.972,333.223 L713.928,380.483 L814.077,380.483 L814.077,438.852 L811.077,438.852 L713.927,438.86 L760.972,486.121 L766.065,491.237 L683.944,491.237 L683.065,490.354 L604.855,411.787 L606.981,409.671 L604.855,407.554 L683.065,328.99 L683.944,328.107 L766.065,328.107 z M758.846,331.107 L685.191,331.107 L606.981,409.671 L685.191,488.237 L758.846,488.237 L706.708,435.86 L811.077,435.852 L811.077,383.483 L706.708,383.483 L758.846,331.107 z" fill="#FFFFFF"/>
      </g>
      <path d="M247.751,672.619 L199.109,623.758 L153.3,623.758 L185.726,656.333 L120.822,656.333 L120.822,688.917 L185.726,688.908 L153.3,721.483 L199.109,721.483 L247.751,672.619" fill="#FFC000"/>
    </g>
  </g>
</svg>
